<?xml version="1.0" encoding="UTF-8" standalone="no"?>
<!-- Created with Inkscape (http://www.inkscape.org/) -->

<svg
   xmlns:dc="http://purl.org/dc/elements/1.1/"
   xmlns:cc="http://creativecommons.org/ns#"
   xmlns:rdf="http://www.w3.org/1999/02/22-rdf-syntax-ns#"
   xmlns:svg="http://www.w3.org/2000/svg"
   xmlns="http://www.w3.org/2000/svg"
   xmlns:sodipodi="http://sodipodi.sourceforge.net/DTD/sodipodi-0.dtd"
   xmlns:inkscape="http://www.inkscape.org/namespaces/inkscape"
   width="210mm"
   height="297mm"
   viewBox="0 0 210 297"
   version="1.1"
   id="svg8"
   inkscape:version="0.92.1 r15371"
   sodipodi:docname="Norm_TwoNorm_Pmiss.svg"
   inkscape:export-filename="/mnt/D/Nic/2017_2018/DEDP_secr/Exam/fig/Norm_TwoNorm.svg.png"
   inkscape:export-xdpi="90"
   inkscape:export-ydpi="90">
  <defs
     id="defs2">
    <marker
       inkscape:stockid="Arrow1Lend"
       orient="auto"
       refY="0.0"
       refX="0.0"
       id="marker4811"
       style="overflow:visible;"
       inkscape:isstock="true">
      <path
         id="path4809"
         d="M 0.0,0.0 L 5.0,-5.0 L -12.5,0.0 L 5.0,5.0 L 0.0,0.0 z "
         style="fill-rule:evenodd;stroke:#000000;stroke-width:1pt;stroke-opacity:1;fill:#000000;fill-opacity:1"
         transform="scale(0.8) rotate(180) translate(12.5,0)" />
    </marker>
    <marker
       inkscape:stockid="Arrow1Lend"
       orient="auto"
       refY="0.0"
       refX="0.0"
       id="Arrow1Lend"
       style="overflow:visible;"
       inkscape:isstock="true">
      <path
         id="path4494"
         d="M 0.0,0.0 L 5.0,-5.0 L -12.5,0.0 L 5.0,5.0 L 0.0,0.0 z "
         style="fill-rule:evenodd;stroke:#000000;stroke-width:1pt;stroke-opacity:1;fill:#000000;fill-opacity:1"
         transform="scale(0.8) rotate(180) translate(12.5,0)" />
    </marker>
    <marker
       inkscape:stockid="Arrow2Lend"
       orient="auto"
       refY="0.0"
       refX="0.0"
       id="Arrow2Lend"
       style="overflow:visible;"
       inkscape:isstock="true">
      <path
         id="path4512"
         style="fill-rule:evenodd;stroke-width:0.625;stroke-linejoin:round;stroke:#000000;stroke-opacity:1;fill:#000000;fill-opacity:1"
         d="M 8.7185878,4.0337352 L -2.2072895,0.016013256 L 8.7185884,-4.0017078 C 6.9730900,-1.6296469 6.9831476,1.6157441 8.7185878,4.0337352 z "
         transform="scale(1.1) rotate(180) translate(1,0)" />
    </marker>
    <clipPath
       id="clipPath-3">
      <rect
         style="fill:none;fill-opacity:1;stroke:#000000;stroke-width:1;stroke-miterlimit:4;stroke-dasharray:none;stroke-dashoffset:0;stroke-opacity:1"
         id="rect4688-6"
         width="144.86008"
         height="121.8749"
         x="25.657875"
         y="47.370251"
         rx="1.0583333"
         ry="1.0583333" />
    </clipPath>
    <clipPath
       id="clipPath-3-5">
      <rect
         style="fill:none;fill-opacity:1;stroke:#000000;stroke-width:1;stroke-miterlimit:4;stroke-dasharray:none;stroke-dashoffset:0;stroke-opacity:1"
         id="rect4688-6-3"
         width="144.86008"
         height="121.8749"
         x="25.657875"
         y="47.370251"
         rx="1.0583333"
         ry="1.0583333" />
    </clipPath>
  </defs>
  <sodipodi:namedview
     id="base"
     pagecolor="#ffffff"
     bordercolor="#666666"
     borderopacity="1.0"
     inkscape:pageopacity="0.0"
     inkscape:pageshadow="2"
     inkscape:zoom="0.7"
     inkscape:cx="246.27791"
     inkscape:cy="405.05471"
     inkscape:document-units="mm"
     inkscape:current-layer="layer1"
     showgrid="false"
     inkscape:window-width="1280"
     inkscape:window-height="974"
     inkscape:window-x="0"
     inkscape:window-y="0"
     inkscape:window-maximized="1" />
  <metadata
     id="metadata5">
    <rdf:RDF>
      <cc:Work
         rdf:about="">
        <dc:format>image/svg+xml</dc:format>
        <dc:type
           rdf:resource="http://purl.org/dc/dcmitype/StillImage" />
        <dc:title></dc:title>
      </cc:Work>
    </rdf:RDF>
  </metadata>
  <g
     inkscape:label="Layer 1"
     inkscape:groupmode="layer"
     id="layer1">
    <path
       style="fill:none;stroke:#000000;stroke-width:0.26458332px;stroke-linecap:butt;stroke-linejoin:miter;stroke-opacity:1;marker-end:url(#marker4811)"
       d="M -13.539865,206.66369 H 188.61012"
       id="path4807"
       inkscape:connector-curvature="0" />
    <path
       transform="matrix(0.81584295,0,0,0.53422384,33.626869,123.47583)"
       id="path5439-7"
       clip-path="url(#clipPath-3)"
       title="exp(-x*x/2)"
       d="m 25.657875,151.83445 v -0.96708 c 0.242647,0.86616 0.485293,-0.95311 0.72794,-0.0911 0.242647,0.86204 0.485294,-0.95573 0.72794,-0.0986 0.242647,0.85714 0.485294,-0.9581 0.72794,-0.10664 0.242647,0.85146 0.485294,-0.96021 0.72794,-0.11521 0.242647,0.84501 0.485294,-0.96213 0.727941,-0.12435 0.242646,0.83779 0.485293,-0.96388 0.72794,-0.13407 0.242646,0.8298 0.485293,-0.96549 0.72794,-0.14442 0.242646,0.82107 0.485293,-0.96698 0.72794,-0.1554 0.242647,0.81159 0.485293,-0.9684 0.72794,-0.16703 0.242647,0.80136 0.485293,-0.96979 0.72794,-0.17937 0.242647,0.79042 0.485293,-0.97116 0.72794,-0.19241 0.242647,0.77875 0.485294,-0.97256 0.72794,-0.20618 0.242647,0.76637 0.485294,-0.97402 0.72794,-0.22072 0.242647,0.7533 0.485294,-0.97557 0.72794,-0.23602 0.242647,0.73954 0.485294,-0.97726 0.727941,-0.25214 0.242646,0.72512 0.485293,-0.97909 0.72794,-0.26906 0.242646,0.71003 0.485293,-0.98112 0.72794,-0.28682 0.242646,0.69429 0.485293,-0.98337 0.72794,-0.30544 0.242647,0.67793 0.485293,-0.98586 0.72794,-0.32491 0.242647,0.66095 0.485293,-0.98863 0.72794,-0.34526 0.242647,0.64336 0.485293,-0.9917 0.72794,-0.3665 0.242647,0.6252 0.485294,-0.99509 0.72794,-0.38862 0.242647,0.60646 0.485294,-0.99882 0.72794,-0.41164 0.242647,0.58718 0.485294,-1.00292 0.72794,-0.43556 0.242647,0.56736 0.485294,-1.00738 0.727941,-0.46035 0.242646,0.54702 0.485293,-1.01224 0.72794,-0.48605 0.242646,0.5262 0.485293,-1.01748 0.72794,-0.5126 0.242646,0.50488 0.485293,-1.02314 0.72794,-0.54003 0.242647,0.48312 0.485293,-1.02918 0.72794,-0.56828 0.242647,0.4609 0.485293,-1.03564 0.72794,-0.59736 0.242647,0.43827 0.485293,-1.04248 0.72794,-0.62723 0.242647,0.41525 0.485294,-1.04969 0.72794,-0.65785 0.242647,0.39185 0.485294,-1.05727 0.72794,-0.68919 0.242647,0.36809 0.485294,-1.0652 0.72794,-0.72121 0.242647,0.34399 0.485294,-1.07343 0.727941,-0.75385 0.242646,0.31958 0.485293,-1.08196 0.72794,-0.78708 0.242646,0.29488 0.485293,-1.09073 0.72794,-0.82082 0.242646,0.26992 0.485293,-1.09971 0.72794,-0.85501 0.242647,0.24471 0.485293,-1.10885 0.72794,-0.88958 0.242647,0.21927 0.485293,-1.11811 0.72794,-0.92447 0.242647,0.19364 0.485293,-1.12741 0.72794,-0.95958 0.242647,0.16783 0.485294,-1.13671 0.72794,-0.99484 0.242647,0.14187 0.485294,-1.14592 0.72794,-1.03015 0.242647,0.11578 0.485294,-1.15499 0.72794,-1.06541 0.242647,0.0896 0.485294,-1.16383 0.727941,-1.10052 0.242646,0.0633 0.485293,-1.17237 0.72794,-1.1354 0.242646,0.037 0.485293,-1.18051 0.72794,-1.1699 0.242646,0.0106 0.485293,-1.18816 0.72794,-1.20394 0.242647,-0.0158 0.485293,-1.19523 0.72794,-1.23737 0.242647,-0.0421 0.485293,-1.20163 0.72794,-1.2701 0.242647,-0.0685 0.485293,-1.20725 0.72794,-1.30198 0.242647,-0.0947 0.485294,-1.21199 0.72794,-1.33289 0.242647,-0.12091 0.485294,-1.21574 0.72794,-1.36271 0.242647,-0.14698 0.485294,-1.2184 0.72794,-1.3913 0.242647,-0.17291 0.485294,-1.21985 0.727941,-1.41853 0.242646,-0.19868 0.485293,-1.21998 0.72794,-1.44426 0.242646,-0.22428 0.485293,-1.2187 0.72794,-1.46837 0.242646,-0.24967 0.485293,-1.21587 0.72794,-1.4907 0.242647,-0.27484 0.485293,-1.21141 0.72794,-1.51116 0.242647,-0.29975 0.485293,-1.2052 0.72794,-1.52959 0.242647,-0.32439 0.485293,-1.19713 0.72794,-1.54587 0.242647,-0.34874 0.485294,-1.18711 0.72794,-1.55988 0.242647,-0.37277 0.485294,-1.17503 0.72794,-1.57149 0.242647,-0.39646 0.485294,-1.16081 0.72794,-1.5806 0.242647,-0.4198 0.485294,-1.14435 0.727941,-1.5871 0.242646,-0.44274 0.485293,-1.12557 0.72794,-1.590862 0.242646,-0.465293 0.485293,-1.104399 0.72794,-1.591817 0.242646,-0.487417 0.485293,-1.080762 0.72794,-1.589861 0.242647,-0.509099 0.485293,-1.054599 0.72794,-1.584917 0.242647,-0.530317 0.485293,-1.025854 0.72794,-1.576908 0.242647,-0.551054 0.485293,-0.994484 0.72794,-1.565774 0.242647,-0.57129 0.485294,-0.960452 0.72794,-1.551458 0.242647,-0.591007 0.485294,-0.923732 0.72794,-1.533918 0.242647,-0.610186 0.485294,-0.884309 0.72794,-1.51312 0.242647,-0.62881 0.485294,-0.842177 0.727941,-1.48904 0.242646,-0.646864 0.485293,-0.797343 0.72794,-1.461672 0.242646,-0.664328 0.485293,-0.749823 0.72794,-1.431013 0.242646,-0.681189 0.485293,-0.699646 0.72794,-1.397078 0.242647,-0.697431 0.485293,-0.646854 0.72794,-1.359894 0.242647,-0.713039 0.485293,-0.591498 0.72794,-1.319497 0.242647,-0.727999 0.485293,-0.533643 0.72794,-1.27594 0.242647,-0.742297 0.485294,-0.473364 0.72794,-1.229285 0.242647,-0.75592 0.485294,-0.41075 0.72794,-1.179607 0.242647,-0.768857 0.485294,-0.345901 0.72794,-1.126996 0.242647,-0.781094 0.485294,-0.278928 0.727941,-1.07155 0.242646,-0.792621 0.485293,-0.209954 0.72794,-1.013382 0.242646,-0.803428 0.485293,-0.139112 0.72794,-0.952617 0.242646,-0.813505 0.485293,-0.06655 0.72794,-0.889387 0.242647,-0.822842 0.485293,0.0076 0.72794,-0.823839 0.242647,-0.83143 0.485293,0.08314 0.72794,-0.756126 0.242647,-0.839264 0.485293,0.159918 0.72794,-0.686416 0.242647,-0.846335 0.485294,0.237755 0.72794,-0.61488 0.242647,-0.852636 0.485294,0.31646 0.72794,-0.541701 0.242647,-0.858161 0.485294,0.395841 0.72794,-0.467066 0.242647,-0.862908 0.485294,0.475696 0.727941,-0.391173 0.242646,-0.866869 0.485293,0.555822 0.72794,-0.314221 0.242646,-0.870042 0.485293,0.636009 0.72794,-0.236417 0.242646,-0.872425 0.485293,0.716046 0.72794,-0.157969 0.242647,-0.874015 0.485293,0.795717 0.72794,-0.07909 0.242647,-0.87481 0.485293,0.87481 0.72794,0 0.242647,-0.87481 0.485293,0.953108 0.72794,0.07909 0.242647,-0.874015 0.485294,1.030395 0.72794,0.157969 0.242645,-0.872425 0.485295,1.10646 0.727945,0.236417 0.24264,-0.870042 0.48529,1.18109 0.72794,0.314221 0.24264,-0.866869 0.48529,1.25408 0.72794,0.391173 0.24264,-0.862908 0.48529,1.325227 0.72794,0.467066 0.24264,-0.858161 0.48529,1.394336 0.72794,0.541701 0.24264,-0.852636 0.48529,1.461214 0.72794,0.61488 0.24264,-0.846335 0.48529,1.52568 0.72794,0.686416 0.24264,-0.839264 0.48529,1.587557 0.72794,0.756126 0.24264,-0.83143 0.48529,1.646681 0.72794,0.823839 0.24264,-0.822842 0.48529,1.702892 0.72794,0.889387 0.24264,-0.813505 0.48529,1.756045 0.72794,0.952617 0.24264,-0.803428 0.48529,1.806004 0.72794,1.013382 0.24264,-0.792621 0.48529,1.852645 0.72794,1.07155 0.24264,-0.781094 0.48529,1.895853 0.72794,1.126996 0.24264,-0.768857 0.48529,1.935528 0.72794,1.179607 0.24264,-0.75592 0.48529,1.971582 0.72794,1.229285 0.24264,-0.742297 0.48529,2.003939 0.72794,1.27594 0.24264,-0.727999 0.48529,2.032537 0.72794,1.319497 0.24264,-0.713039 0.48529,2.057326 0.72794,1.359894 0.24264,-0.697431 0.48529,2.078268 0.72794,1.397078 0.24264,-0.681189 0.48529,2.095342 0.72794,1.431013 0.24264,-0.664328 0.48529,2.108535 0.72794,1.461672 0.24264,-0.646864 0.48529,2.117851 0.72794,1.48904 0.24264,-0.62881 0.48529,2.123306 0.72794,1.51312 0.24264,-0.610186 0.48529,2.124924 0.72794,1.533918 0.24264,-0.591007 0.48529,2.122748 0.72794,1.551458 0.24264,-0.57129 0.48529,2.116828 0.72794,1.565774 0.24264,-0.551054 0.48529,2.107226 0.72794,1.576908 0.24264,-0.530317 0.48529,2.094016 0.72794,1.584917 0.24264,-0.509099 0.48529,2.077279 0.72794,1.589861 0.24264,-0.487417 0.48529,2.057109 0.72794,1.591817 0.24265,-0.465293 0.48529,2.033612 0.72794,1.590862 0.24265,-0.44274 0.48529,2.00689 0.72794,1.5871 0.24265,-0.4198 0.48529,1.97706 0.72794,1.5806 0.24265,-0.39646 0.48529,1.94426 0.72794,1.57149 0.24265,-0.37277 0.48529,1.90862 0.72794,1.55988 0.24265,-0.34874 0.48529,1.87026 0.72794,1.54587 0.24265,-0.32439 0.48529,1.82934 0.72794,1.52959 0.24265,-0.29975 0.48529,1.78599 0.72794,1.51116 0.24265,-0.27484 0.48529,1.74037 0.72794,1.4907 0.24265,-0.24967 0.48529,1.69265 0.72794,1.46837 0.24265,-0.22428 0.48529,1.64294 0.72794,1.44426 0.24265,-0.19868 0.48529,1.59143 0.72794,1.41853 0.24265,-0.17291 0.48529,1.53827 0.72794,1.3913 0.24265,-0.14698 0.48529,1.48361 0.72794,1.36271 0.24265,-0.12091 0.48529,1.42762 0.72794,1.33289 0.24265,-0.0947 0.48529,1.37045 0.72794,1.30198 0.24265,-0.0685 0.48529,1.31224 0.72794,1.2701 0.24265,-0.0421 0.48529,1.25315 0.72794,1.23737 0.24265,-0.0158 0.48529,1.19333 0.72794,1.20394 0.24265,0.0106 0.48529,1.13293 0.72794,1.1699 0.24265,0.037 0.48529,1.07209 0.72794,1.1354 0.24265,0.0633 0.48529,1.01094 0.72794,1.10052 0.24265,0.0896 0.48529,0.94964 0.72794,1.06541 0.24265,0.11578 0.48529,0.88828 0.72794,1.03015 0.24265,0.14187 0.48529,0.82701 0.72794,0.99484 0.24265,0.16783 0.48529,0.76594 0.72794,0.95958 0.24265,0.19364 0.48529,0.7052 0.72794,0.92447 0.24265,0.21927 0.48529,0.64488 0.72794,0.88958 0.24265,0.24471 0.48529,0.5851 0.72794,0.85501 0.24265,0.26992 0.48529,0.52594 0.72794,0.82082 0.24265,0.29488 0.48529,0.4675 0.72794,0.78708 0.24265,0.31958 0.48529,0.40986 0.72794,0.75385 0.24265,0.34399 0.48529,0.35313 0.72794,0.72121 0.24265,0.36809 0.4853,0.29735 0.72794,0.68919 0.24265,0.39185 0.4853,0.2426 0.72794,0.65785 0.24265,0.41525 0.4853,0.18895 0.72794,0.62723 0.24265,0.43827 0.4853,0.13646 0.72794,0.59736 0.24265,0.4609 0.4853,0.0852 0.72794,0.56828 0.24265,0.48312 0.4853,0.0351 0.72794,0.54003 0.24265,0.50488 0.4853,-0.0136 0.72794,0.5126 0.24265,0.5262 0.4853,-0.061 0.72794,0.48605 0.24265,0.54702 0.4853,-0.10701 0.72794,0.46035 0.24265,0.56736 0.4853,-0.15162 0.72794,0.43556 0.24265,0.58718 0.4853,-0.19483 0.72794,0.41164 0.24265,0.60646 0.4853,-0.23658 0.72794,0.38862 0.24265,0.6252 0.4853,-0.27687 0.72794,0.3665 0.24265,0.64336 0.4853,-0.31569 0.72794,0.34526 0.24265,0.66095 0.4853,-0.35302 0.72794,0.32491 0.24265,0.67793 0.4853,-0.38886 0.72794,0.30544 0.24265,0.69429 0.4853,-0.42321 0.72794,0.28682 0.24265,0.71003 0.4853,-0.45606 0.72794,0.26906 0.24265,0.72512 0.4853,-0.48741 0.72794,0.25214 0.24265,0.73954 0.4853,-0.51728 0.72794,0.23602 0.24265,0.7533 0.4853,-0.54566 0.72794,0.22072 0.24265,0.76637 0.4853,-0.57257 0.72794,0.20618 0.24265,0.77875 0.4853,-0.59801 0.72794,0.19241 0.24265,0.79042 0.4853,-0.622 0.72794,0.17937 0.24265,0.80136 0.4853,-0.64455 0.72794,0.16703 0.24265,0.81159 0.4853,-0.66567 0.72794,0.1554 0.24265,0.82107 0.4853,-0.68539 0.72794,0.14442 0.24265,0.8298 0.4853,-0.70371 0.72794,0.13407 0.24265,0.83779 0.4853,-0.72065 0.72794,0.12435 0.24265,0.84501 0.4853,-0.73625 0.72794,0.11521 0.24265,0.85146 0.4853,-0.7505 0.72794,0.10664 0.24265,0.85714 0.4853,-0.76345 0.72794,0.0986 0.24265,0.86204 0.4853,-0.77508 0.72795,0.0911 v 0.96708"
       style="fill:none;fill-opacity:1;stroke:#000000;stroke-width:1.5147295;stroke-miterlimit:4;stroke-dasharray:none;stroke-dashoffset:0;stroke-opacity:1"
       inkscape:connector-curvature="0"
       sodipodi:nodetypes="ccsssssssssssssssssssssssssssssssssssssssssssssssssssssssssssssssssssssssssssssssssssssssssssssssssssssssssssssssssssssssssssssssssssssssssssssssssssssssssssssssssssssssssssssssssssssssssssssssssssssscc" />
    <path
       transform="matrix(0.78668747,0,0,0.53422384,-15.246959,123.47583)"
       id="path5439-7-5"
       clip-path="url(#clipPath-3-5)"
       title="exp(-x*x/2)"
       d="m 25.657875,151.83445 v -0.96708 c 0.242647,0.86616 0.485293,-0.95311 0.72794,-0.0911 0.242647,0.86204 0.485294,-0.95573 0.72794,-0.0986 0.242647,0.85714 0.485294,-0.9581 0.72794,-0.10664 0.242647,0.85146 0.485294,-0.96021 0.72794,-0.11521 0.242647,0.84501 0.485294,-0.96213 0.727941,-0.12435 0.242646,0.83779 0.485293,-0.96388 0.72794,-0.13407 0.242646,0.8298 0.485293,-0.96549 0.72794,-0.14442 0.242646,0.82107 0.485293,-0.96698 0.72794,-0.1554 0.242647,0.81159 0.485293,-0.9684 0.72794,-0.16703 0.242647,0.80136 0.485293,-0.96979 0.72794,-0.17937 0.242647,0.79042 0.485293,-0.97116 0.72794,-0.19241 0.242647,0.77875 0.485294,-0.97256 0.72794,-0.20618 0.242647,0.76637 0.485294,-0.97402 0.72794,-0.22072 0.242647,0.7533 0.485294,-0.97557 0.72794,-0.23602 0.242647,0.73954 0.485294,-0.97726 0.727941,-0.25214 0.242646,0.72512 0.485293,-0.97909 0.72794,-0.26906 0.242646,0.71003 0.485293,-0.98112 0.72794,-0.28682 0.242646,0.69429 0.485293,-0.98337 0.72794,-0.30544 0.242647,0.67793 0.485293,-0.98586 0.72794,-0.32491 0.242647,0.66095 0.485293,-0.98863 0.72794,-0.34526 0.242647,0.64336 0.485293,-0.9917 0.72794,-0.3665 0.242647,0.6252 0.485294,-0.99509 0.72794,-0.38862 0.242647,0.60646 0.485294,-0.99882 0.72794,-0.41164 0.242647,0.58718 0.485294,-1.00292 0.72794,-0.43556 0.242647,0.56736 0.485294,-1.00738 0.727941,-0.46035 0.242646,0.54702 0.485293,-1.01224 0.72794,-0.48605 0.242646,0.5262 0.485293,-1.01748 0.72794,-0.5126 0.242646,0.50488 0.485293,-1.02314 0.72794,-0.54003 0.242647,0.48312 0.485293,-1.02918 0.72794,-0.56828 0.242647,0.4609 0.485293,-1.03564 0.72794,-0.59736 0.242647,0.43827 0.485293,-1.04248 0.72794,-0.62723 0.242647,0.41525 0.485294,-1.04969 0.72794,-0.65785 0.242647,0.39185 0.485294,-1.05727 0.72794,-0.68919 0.242647,0.36809 0.485294,-1.0652 0.72794,-0.72121 0.242647,0.34399 0.485294,-1.07343 0.727941,-0.75385 0.242646,0.31958 0.485293,-1.08196 0.72794,-0.78708 0.242646,0.29488 0.485293,-1.09073 0.72794,-0.82082 0.242646,0.26992 0.485293,-1.09971 0.72794,-0.85501 0.242647,0.24471 0.485293,-1.10885 0.72794,-0.88958 0.242647,0.21927 0.485293,-1.11811 0.72794,-0.92447 0.242647,0.19364 0.485293,-1.12741 0.72794,-0.95958 0.242647,0.16783 0.485294,-1.13671 0.72794,-0.99484 0.242647,0.14187 0.485294,-1.14592 0.72794,-1.03015 0.242647,0.11578 0.485294,-1.15499 0.72794,-1.06541 0.242647,0.0896 0.485294,-1.16383 0.727941,-1.10052 0.242646,0.0633 0.485293,-1.17237 0.72794,-1.1354 0.242646,0.037 0.485293,-1.18051 0.72794,-1.1699 0.242646,0.0106 0.485293,-1.18816 0.72794,-1.20394 0.242647,-0.0158 0.485293,-1.19523 0.72794,-1.23737 0.242647,-0.0421 0.485293,-1.20163 0.72794,-1.2701 0.242647,-0.0685 0.485293,-1.20725 0.72794,-1.30198 0.242647,-0.0947 0.485294,-1.21199 0.72794,-1.33289 0.242647,-0.12091 0.485294,-1.21574 0.72794,-1.36271 0.242647,-0.14698 0.485294,-1.2184 0.72794,-1.3913 0.242647,-0.17291 0.485294,-1.21985 0.727941,-1.41853 0.242646,-0.19868 0.485293,-1.21998 0.72794,-1.44426 0.242646,-0.22428 0.485293,-1.2187 0.72794,-1.46837 0.242646,-0.24967 0.485293,-1.21587 0.72794,-1.4907 0.242647,-0.27484 0.485293,-1.21141 0.72794,-1.51116 0.242647,-0.29975 0.485293,-1.2052 0.72794,-1.52959 0.242647,-0.32439 0.485293,-1.19713 0.72794,-1.54587 0.242647,-0.34874 0.485294,-1.18711 0.72794,-1.55988 0.242647,-0.37277 0.485294,-1.17503 0.72794,-1.57149 0.242647,-0.39646 0.485294,-1.16081 0.72794,-1.5806 0.242647,-0.4198 0.485294,-1.14435 0.727941,-1.5871 0.242646,-0.44274 0.485293,-1.12557 0.72794,-1.590862 0.242646,-0.465293 0.485293,-1.104399 0.72794,-1.591817 0.242646,-0.487417 0.485293,-1.080762 0.72794,-1.589861 0.242647,-0.509099 0.485293,-1.054599 0.72794,-1.584917 0.242647,-0.530317 0.485293,-1.025854 0.72794,-1.576908 0.242647,-0.551054 0.485293,-0.994484 0.72794,-1.565774 0.242647,-0.57129 0.485294,-0.960452 0.72794,-1.551458 0.242647,-0.591007 0.485294,-0.923732 0.72794,-1.533918 0.242647,-0.610186 0.485294,-0.884309 0.72794,-1.51312 0.242647,-0.62881 0.485294,-0.842177 0.727941,-1.48904 0.242646,-0.646864 0.485293,-0.797343 0.72794,-1.461672 0.242646,-0.664328 0.485293,-0.749823 0.72794,-1.431013 0.242646,-0.681189 0.485293,-0.699646 0.72794,-1.397078 0.242647,-0.697431 0.485293,-0.646854 0.72794,-1.359894 0.242647,-0.713039 0.485293,-0.591498 0.72794,-1.319497 0.242647,-0.727999 0.485293,-0.533643 0.72794,-1.27594 0.242647,-0.742297 0.485294,-0.473364 0.72794,-1.229285 0.242647,-0.75592 0.485294,-0.41075 0.72794,-1.179607 0.242647,-0.768857 0.485294,-0.345901 0.72794,-1.126996 0.242647,-0.781094 0.485294,-0.278928 0.727941,-1.07155 0.242646,-0.792621 0.485293,-0.209954 0.72794,-1.013382 0.242646,-0.803428 0.485293,-0.139112 0.72794,-0.952617 0.242646,-0.813505 0.485293,-0.06655 0.72794,-0.889387 0.242647,-0.822842 0.485293,0.0076 0.72794,-0.823839 0.242647,-0.83143 0.485293,0.08314 0.72794,-0.756126 0.242647,-0.839264 0.485293,0.159918 0.72794,-0.686416 0.242647,-0.846335 0.485294,0.237755 0.72794,-0.61488 0.242647,-0.852636 0.485294,0.31646 0.72794,-0.541701 0.242647,-0.858161 0.485294,0.395841 0.72794,-0.467066 0.242647,-0.862908 0.485294,0.475696 0.727941,-0.391173 0.242646,-0.866869 0.485293,0.555822 0.72794,-0.314221 0.242646,-0.870042 0.485293,0.636009 0.72794,-0.236417 0.242646,-0.872425 0.485293,0.716046 0.72794,-0.157969 0.242647,-0.874015 0.485293,0.795717 0.72794,-0.07909 0.242647,-0.87481 0.485293,0.87481 0.72794,0 0.242647,-0.87481 0.485293,0.953108 0.72794,0.07909 0.242647,-0.874015 0.485294,1.030395 0.72794,0.157969 0.242645,-0.872425 0.485295,1.10646 0.727945,0.236417 0.24264,-0.870042 0.48529,1.18109 0.72794,0.314221 0.24264,-0.866869 0.48529,1.25408 0.72794,0.391173 0.24264,-0.862908 0.48529,1.325227 0.72794,0.467066 0.24264,-0.858161 0.48529,1.394336 0.72794,0.541701 0.24264,-0.852636 0.48529,1.461214 0.72794,0.61488 0.24264,-0.846335 0.48529,1.52568 0.72794,0.686416 0.24264,-0.839264 0.48529,1.587557 0.72794,0.756126 0.24264,-0.83143 0.48529,1.646681 0.72794,0.823839 0.24264,-0.822842 0.48529,1.702892 0.72794,0.889387 0.24264,-0.813505 0.48529,1.756045 0.72794,0.952617 0.24264,-0.803428 0.48529,1.806004 0.72794,1.013382 0.24264,-0.792621 0.48529,1.852645 0.72794,1.07155 0.24264,-0.781094 0.48529,1.895853 0.72794,1.126996 0.24264,-0.768857 0.48529,1.935528 0.72794,1.179607 0.24264,-0.75592 0.48529,1.971582 0.72794,1.229285 0.24264,-0.742297 0.48529,2.003939 0.72794,1.27594 0.24264,-0.727999 0.48529,2.032537 0.72794,1.319497 0.24264,-0.713039 0.48529,2.057326 0.72794,1.359894 0.24264,-0.697431 0.48529,2.078268 0.72794,1.397078 0.24264,-0.681189 0.48529,2.095342 0.72794,1.431013 0.24264,-0.664328 0.48529,2.108535 0.72794,1.461672 0.24264,-0.646864 0.48529,2.117851 0.72794,1.48904 0.24264,-0.62881 0.48529,2.123306 0.72794,1.51312 0.24264,-0.610186 0.48529,2.124924 0.72794,1.533918 0.24264,-0.591007 0.48529,2.122748 0.72794,1.551458 0.24264,-0.57129 0.48529,2.116828 0.72794,1.565774 0.24264,-0.551054 0.48529,2.107226 0.72794,1.576908 0.24264,-0.530317 0.48529,2.094016 0.72794,1.584917 0.24264,-0.509099 0.48529,2.077279 0.72794,1.589861 0.24264,-0.487417 0.48529,2.057109 0.72794,1.591817 0.24265,-0.465293 0.48529,2.033612 0.72794,1.590862 0.24265,-0.44274 0.48529,2.00689 0.72794,1.5871 0.24265,-0.4198 0.48529,1.97706 0.72794,1.5806 0.24265,-0.39646 0.48529,1.94426 0.72794,1.57149 0.24265,-0.37277 0.48529,1.90862 0.72794,1.55988 0.24265,-0.34874 0.48529,1.87026 0.72794,1.54587 0.24265,-0.32439 0.48529,1.82934 0.72794,1.52959 0.24265,-0.29975 0.48529,1.78599 0.72794,1.51116 0.24265,-0.27484 0.48529,1.74037 0.72794,1.4907 0.24265,-0.24967 0.48529,1.69265 0.72794,1.46837 0.24265,-0.22428 0.48529,1.64294 0.72794,1.44426 0.24265,-0.19868 0.48529,1.59143 0.72794,1.41853 0.24265,-0.17291 0.48529,1.53827 0.72794,1.3913 0.24265,-0.14698 0.48529,1.48361 0.72794,1.36271 0.24265,-0.12091 0.48529,1.42762 0.72794,1.33289 0.24265,-0.0947 0.48529,1.37045 0.72794,1.30198 0.24265,-0.0685 0.48529,1.31224 0.72794,1.2701 0.24265,-0.0421 0.48529,1.25315 0.72794,1.23737 0.24265,-0.0158 0.48529,1.19333 0.72794,1.20394 0.24265,0.0106 0.48529,1.13293 0.72794,1.1699 0.24265,0.037 0.48529,1.07209 0.72794,1.1354 0.24265,0.0633 0.48529,1.01094 0.72794,1.10052 0.24265,0.0896 0.48529,0.94964 0.72794,1.06541 0.24265,0.11578 0.48529,0.88828 0.72794,1.03015 0.24265,0.14187 0.48529,0.82701 0.72794,0.99484 0.24265,0.16783 0.48529,0.76594 0.72794,0.95958 0.24265,0.19364 0.48529,0.7052 0.72794,0.92447 0.24265,0.21927 0.48529,0.64488 0.72794,0.88958 0.24265,0.24471 0.48529,0.5851 0.72794,0.85501 0.24265,0.26992 0.48529,0.52594 0.72794,0.82082 0.24265,0.29488 0.48529,0.4675 0.72794,0.78708 0.24265,0.31958 0.48529,0.40986 0.72794,0.75385 0.24265,0.34399 0.48529,0.35313 0.72794,0.72121 0.24265,0.36809 0.4853,0.29735 0.72794,0.68919 0.24265,0.39185 0.4853,0.2426 0.72794,0.65785 0.24265,0.41525 0.4853,0.18895 0.72794,0.62723 0.24265,0.43827 0.4853,0.13646 0.72794,0.59736 0.24265,0.4609 0.4853,0.0852 0.72794,0.56828 0.24265,0.48312 0.4853,0.0351 0.72794,0.54003 0.24265,0.50488 0.4853,-0.0136 0.72794,0.5126 0.24265,0.5262 0.4853,-0.061 0.72794,0.48605 0.24265,0.54702 0.4853,-0.10701 0.72794,0.46035 0.24265,0.56736 0.4853,-0.15162 0.72794,0.43556 0.24265,0.58718 0.4853,-0.19483 0.72794,0.41164 0.24265,0.60646 0.4853,-0.23658 0.72794,0.38862 0.24265,0.6252 0.4853,-0.27687 0.72794,0.3665 0.24265,0.64336 0.4853,-0.31569 0.72794,0.34526 0.24265,0.66095 0.4853,-0.35302 0.72794,0.32491 0.24265,0.67793 0.4853,-0.38886 0.72794,0.30544 0.24265,0.69429 0.4853,-0.42321 0.72794,0.28682 0.24265,0.71003 0.4853,-0.45606 0.72794,0.26906 0.24265,0.72512 0.4853,-0.48741 0.72794,0.25214 0.24265,0.73954 0.4853,-0.51728 0.72794,0.23602 0.24265,0.7533 0.4853,-0.54566 0.72794,0.22072 0.24265,0.76637 0.4853,-0.57257 0.72794,0.20618 0.24265,0.77875 0.4853,-0.59801 0.72794,0.19241 0.24265,0.79042 0.4853,-0.622 0.72794,0.17937 0.24265,0.80136 0.4853,-0.64455 0.72794,0.16703 0.24265,0.81159 0.4853,-0.66567 0.72794,0.1554 0.24265,0.82107 0.4853,-0.68539 0.72794,0.14442 0.24265,0.8298 0.4853,-0.70371 0.72794,0.13407 0.24265,0.83779 0.4853,-0.72065 0.72794,0.12435 0.24265,0.84501 0.4853,-0.73625 0.72794,0.11521 0.24265,0.85146 0.4853,-0.7505 0.72794,0.10664 0.24265,0.85714 0.4853,-0.76345 0.72794,0.0986 0.24265,0.86204 0.4853,-0.77508 0.72795,0.0911 v 0.96708"
       style="fill:none;fill-opacity:1;stroke:#000000;stroke-width:1.54254282;stroke-miterlimit:4;stroke-dasharray:none;stroke-dashoffset:0;stroke-opacity:1"
       inkscape:connector-curvature="0"
       sodipodi:nodetypes="ccsssssssssssssssssssssssssssssssssssssssssssssssssssssssssssssssssssssssssssssssssssssssssssssssssssssssssssssssssssssssssssssssssssssssssssssssssssssssssssssssssssssssssssssssssssssssssssssssssssssscc" />
    <text
       xml:space="preserve"
       style="font-style:normal;font-weight:normal;font-size:10.58333302px;line-height:85.40000319%;font-family:Sans;letter-spacing:0px;word-spacing:0px;fill:#000000;fill-opacity:1;stroke:none;stroke-width:0.26458332px;stroke-linecap:butt;stroke-linejoin:miter;stroke-opacity:1"
       x="19.720196"
       y="154.87346"
       id="text4625"><tspan
         sodipodi:role="line"
         id="tspan4623"
         x="19.720196"
         y="154.87346"
         style="font-style:normal;font-variant:normal;font-weight:normal;font-stretch:normal;line-height:85.40000319%;font-family:sans-serif;-inkscape-font-specification:sans-serif;stroke-width:0.26458332px"
         dx="0 0 0 0 0 0 -0.039999999">w(r|H<tspan
   style="font-size:6.3499999px"
   id="tspan5122">0</tspan>)</tspan></text>
    <text
       xml:space="preserve"
       style="font-style:normal;font-weight:normal;font-size:10.58333302px;line-height:85.40000319%;font-family:Sans;letter-spacing:0px;word-spacing:0px;fill:#000000;fill-opacity:1;stroke:none;stroke-width:0.26458332px;stroke-linecap:butt;stroke-linejoin:miter;stroke-opacity:1"
       x="120.41161"
       y="152.84196"
       id="text4625-6"><tspan
         sodipodi:role="line"
         id="tspan4623-9"
         x="120.41161"
         y="152.84196"
         style="font-style:normal;font-variant:normal;font-weight:normal;font-stretch:normal;line-height:85.40000319%;font-family:sans-serif;-inkscape-font-specification:sans-serif;stroke-width:0.26458332px"
         dx="0 0 0 0 0 0 -0.039999999">w(r|H<tspan
   style="font-size:6.3499999px;stroke-width:0.26458332px"
   id="tspan5122-2">1</tspan>)</tspan></text>
    <path
       style="fill:none;fill-rule:evenodd;stroke:#000000;stroke-width:0.26499999;stroke-linecap:butt;stroke-linejoin:miter;stroke-miterlimit:4;stroke-dasharray:1.58999992, 1.58999992;stroke-dashoffset:0;stroke-opacity:1"
       d="m 61.988094,157.75356 v 49.13691"
       id="path5155"
       inkscape:connector-curvature="0" />
    <path
       style="fill:none;fill-rule:evenodd;stroke:#000000;stroke-width:0.26499999;stroke-linecap:butt;stroke-linejoin:miter;stroke-miterlimit:4;stroke-dasharray:1.58999994, 1.58999994;stroke-dashoffset:0;stroke-opacity:1"
       d="m 113.58188,157.64025 v 49.13692"
       id="path5155-2"
       inkscape:connector-curvature="0" />
    <text
       xml:space="preserve"
       style="font-style:normal;font-weight:normal;font-size:10.58333302px;line-height:125%;font-family:Sans;letter-spacing:0px;word-spacing:0px;fill:#000000;fill-opacity:1;stroke:none;stroke-width:0.26458332px;stroke-linecap:butt;stroke-linejoin:miter;stroke-opacity:1"
       x="58.35952"
       y="216.86905"
       id="text5174"><tspan
         sodipodi:role="line"
         id="tspan5172"
         x="58.35952"
         y="216.86905"
         style="stroke-width:0.26458332px">0</tspan></text>
    <text
       xml:space="preserve"
       style="font-style:normal;font-weight:normal;font-size:10.58333302px;line-height:125%;font-family:Sans;letter-spacing:0px;word-spacing:0px;fill:#000000;fill-opacity:1;stroke:none;stroke-width:0.26458332px;stroke-linecap:butt;stroke-linejoin:miter;stroke-opacity:1"
       x="110.40688"
       y="218.38095"
       id="text5178"><tspan
         sodipodi:role="line"
         id="tspan5176"
         x="110.40688"
         y="218.38095"
         style="stroke-width:0.26458332px">A</tspan></text>
  </g>
</svg>
